<svg xmlns:dc="http://purl.org/dc/elements/1.1/" xmlns:cc="http://creativecommons.org/ns#" xmlns:rdf="http://www.w3.org/1999/02/22-rdf-syntax-ns#" xmlns:svg="http://www.w3.org/2000/svg" xmlns="http://www.w3.org/2000/svg" xmlns:sodipodi="http://sodipodi.sourceforge.net/DTD/sodipodi-0.dtd" xmlns:inkscape="http://www.inkscape.org/namespaces/inkscape" id="svg873" version="1.1" viewBox="0 0 200 50" inkscape:version="0.91 r13725" sodipodi:docname="logo.svg">
  <sodipodi:namedview pagecolor="#ffffff" bordercolor="#666666" borderopacity="1" objecttolerance="10" gridtolerance="10" guidetolerance="10" inkscape:pageopacity="0" inkscape:pageshadow="2" inkscape:window-width="3200" inkscape:window-height="1673" id="namedview4259" showgrid="false" inkscape:zoom="4.5166446" inkscape:cx="100" inkscape:cy="25" inkscape:window-x="0" inkscape:window-y="1" inkscape:window-maximized="1" inkscape:current-layer="g871"/>
  <metadata id="metadata879">
    <rdf:RDF>
      <cc:Work rdf:about="">
        <dc:format>image/svg+xml</dc:format>
        <dc:type rdf:resource="http://purl.org/dc/dcmitype/StillImage"/>
        <dc:title/>
      </cc:Work>
    </rdf:RDF>
  </metadata>
  <defs id="defs877"/>
  <g id="g871" word-spacing="0" letter-spacing="0" font-size="50.8" font-weight="700" style="line-height:1.25" aria-label="Rebasive" font-family="Ubuntu" stroke-width=".265" fill="#2b2b2b">
    <path id="path917" d="m 97.976,14.78 q 3.354,0 5.589,0.763 2.235,0.762 3.556,2.184 1.371,1.422 1.93,3.454 0.559,2.032 0.559,4.522 V 41.45 q -1.626,0.355 -4.521,0.812 -2.896,0.508 -7.01,0.508 -2.591,0 -4.725,-0.457 -2.083,-0.457 -3.607,-1.473 -1.524,-1.067 -2.337,-2.743 -0.812,-1.677 -0.812,-4.115 0,-2.337 0.914,-3.962 0.965,-1.626 2.54,-2.591 1.575,-0.965 3.607,-1.372 2.032,-0.457 4.216,-0.457 1.473,0 2.59,0.152 1.17,0.102 1.88,0.305 v -0.711 q 0,-1.93 -1.168,-3.099 -1.168,-1.168 -4.064,-1.168 -1.93,0 -3.81,0.305 -1.88,0.254 -3.251,0.762 L 89.087,16.05 q 0.66,-0.204 1.625,-0.407 1.016,-0.254 2.185,-0.406 1.168,-0.203 2.438,-0.305 1.32,-0.152 2.642,-0.152 z" style="-inkscape-font-specification:Ubuntu"/>
    <path id="path921" d="m 86.262,28.852 q 0,3.2 -0.965,5.791 -0.914,2.591 -2.692,4.42 -1.778,1.829 -4.37,2.845 -2.59,0.965 -5.892,0.965 -1.371,0 -2.895,-0.152 -1.474,-0.102 -2.947,-0.305 -1.422,-0.203 -2.743,-0.457 -1.32,-0.305 -2.337,-0.61 V 4.01 l 7.57,-1.22 V 16.1 q 1.27,-0.558 2.64,-0.863 1.373,-0.305 2.947,-0.305 2.845,0 5.03,1.016 2.184,0.965 3.657,2.794 1.473,1.829 2.235,4.42 0.762,2.54 0.762,5.69 z" style="-inkscape-font-specification:Ubuntu"/>
    <path id="path867" style="-inkscape-font-specification:Ubuntu" d="M18.928 6.602q7.925 0 12.141 2.845 4.217 2.794 4.217 8.737 0 3.709-1.728 6.045-1.676 2.286-4.876 3.607 1.066 1.32 2.235 3.048 1.168 1.677 2.286 3.556 1.168 1.829 2.235 3.86 1.067 1.982 1.981 3.913h-8.89q-.965-1.728-1.981-3.506-.965-1.778-2.032-3.454-1.016-1.676-2.032-3.15-1.016-1.524-2.032-2.743H16.54v12.853H8.616V7.516q2.59-.508 5.334-.711 2.794-.203 4.978-.203zm.457 6.756q-.863 0-1.575.05-.66.052-1.27.103v9.55h2.236q4.47 0 6.4-1.118 1.93-1.117 1.93-3.81 0-2.59-1.98-3.657-1.93-1.118-5.74-1.118z"/>
    <path id="path927" d="m 34.718,29.055 q 0,-3.556 1.067,-6.197 1.117,-2.693 2.895,-4.47 1.778,-1.779 4.064,-2.693 2.337,-0.914 4.776,-0.914 5.69,0 8.991,3.505 3.302,3.454 3.302,10.21 0,0.66 -0.05,1.474 -0.051,0.762 -0.102,1.371 H 42.49 q 0.253,2.337 2.184,3.709 1.93,1.371 5.181,1.371 2.083,0 4.064,-0.355 2.032,-0.407 3.302,-0.965 l 1.016,6.146 q -0.61,0.305 -1.625,0.61 -1.016,0.305 -2.286,0.508 -1.22,0.254 -2.642,0.406 -1.422,0.153 -2.845,0.153 -3.606,0 -6.299,-1.067 -2.641,-1.067 -4.42,-2.896 -1.727,-1.88 -2.59,-4.42 -0.813,-2.54 -0.813,-5.486 z" style="-inkscape-font-specification:Ubuntu"/>
    <path id="path925" d="m 52.498,26.16 q -0.05,-0.965 -0.356,-1.88 -0.254,-0.914 -0.863,-1.625 -0.559,-0.712 -1.473,-1.169 -0.864,-0.457 -2.185,-0.457 -1.27,0 -2.184,0.457 -0.915,0.407 -1.524,1.118 -0.61,0.71 -0.965,1.676 -0.305,0.915 -0.458,1.88 z" style="-inkscape-font-specification:Ubuntu;fill:#ffffff"/>
    <path id="path923" d="m 78.54,28.649 q 0,-7.315 -5.384,-7.315 -1.168,0 -2.337,0.305 -1.117,0.304 -1.829,0.762 v 13.766 q 0.56,0.102 1.423,0.204 0.863,0.05 1.88,0.05 3.098,0 4.673,-2.133 1.575,-2.134 1.575,-5.64 z" style="-inkscape-font-specification:Ubuntu;fill:#ffffff"/>
    <path id="path919" d="m 98.586,36.93 q 1.118,0 2.134,-0.051 1.016,-0.051 1.626,-0.153 v -5.74 q -0.458,-0.102 -1.372,-0.203 -0.914,-0.102 -1.676,-0.102 -1.067,0 -2.032,0.152 -0.915,0.102 -1.626,0.458 -0.711,0.355 -1.118,0.965 -0.406,0.61 -0.406,1.524 0,1.778 1.168,2.489 1.22,0.66 3.302,0.66 z" style="-inkscape-font-specification:Ubuntu;fill:#ffffff"/>
    <path id="path915" d="m 120.95,36.777 q 2.083,0 2.947,-0.406 0.863,-0.407 0.863,-1.575 0,-0.915 -1.117,-1.575 -1.118,-0.711 -3.404,-1.575 -1.778,-0.66 -3.251,-1.371 -1.423,-0.712 -2.439,-1.677 -1.016,-1.016 -1.574,-2.387 -0.56,-1.372 -0.56,-3.302 0,-3.76 2.795,-5.944 2.794,-2.184 7.67,-2.184 2.439,0 4.674,0.457 2.235,0.406 3.556,0.914 l -1.32,5.893 q -1.321,-0.457 -2.896,-0.813 -1.524,-0.355 -3.455,-0.355 -3.556,0 -3.556,1.98 0,0.458 0.153,0.814 0.152,0.355 0.61,0.71 0.457,0.306 1.219,0.712 0.812,0.356 2.032,0.813 2.489,0.914 4.114,1.829 1.626,0.863 2.54,1.93 0.966,1.016 1.321,2.286 0.407,1.27 0.407,2.946 0,3.963 -2.998,5.995 -2.946,2.032 -8.382,2.032 -3.556,0 -5.943,-0.61 -2.337,-0.61 -3.251,-1.016 l 1.27,-6.147 q 1.93,0.762 3.962,1.22 2.032,0.406 4.013,0.406 z" style="-inkscape-font-specification:Ubuntu"/>
    <path id="path913" d="m 141.222,42.213 h -7.57 l -0.132,-25.92 7.702,-0.801 z" style="-inkscape-font-specification:Ubuntu"/>
    <path id="path911" d="m 141.053,6.424 c 0,1.15 -0.374,2.06 -1.122,2.733 -0.72,0.645 -1.58,0.967 -2.578,0.967 -0.997,0 -1.87,-0.322 -2.619,-0.967 -0.72,-0.673 -1.08,-1.584 -1.08,-2.733 0,-1.15 0.36,-2.046 1.08,-2.691 a 3.795,3.795 0 0 1 2.62,-1.01 c 0.997,0 1.856,0.337 2.577,1.01 0.748,0.645 1.122,1.542 1.122,2.69 z" style="-inkscape-font-specification:Ubuntu"/>
    <path id="path909" d="m 152.162,42.213 q -2.591,-5.08 -5.284,-11.888 -2.641,-6.807 -5.029,-14.833 h 8.027 q 0.508,1.98 1.168,4.318 0.711,2.286 1.422,4.673 0.762,2.337 1.474,4.572 0.762,2.236 1.473,4.064 0.66,-1.828 1.422,-4.064 0.762,-2.235 1.473,-4.572 0.762,-2.387 1.423,-4.673 0.71,-2.337 1.219,-4.318 h 7.823 q -2.387,8.026 -5.08,14.833 -2.641,6.808 -5.232,11.888 z" style="-inkscape-font-specification:Ubuntu"/>
    <path id="path907" d="m 168.266,29.055 q 0,-3.556 1.067,-6.197 1.118,-2.693 2.896,-4.47 1.778,-1.779 4.064,-2.693 2.337,-0.914 4.775,-0.914 5.69,0 8.992,3.505 3.302,3.454 3.302,10.21 0,0.66 -0.051,1.474 -0.051,0.762 -0.102,1.371 h -17.17 q 0.254,2.337 2.184,3.709 1.93,1.371 5.182,1.371 2.083,0 4.064,-0.355 2.032,-0.407 3.302,-0.965 l 1.016,6.146 q -0.61,0.305 -1.626,0.61 -1.016,0.305 -2.286,0.508 -1.219,0.254 -2.641,0.406 -1.423,0.153 -2.845,0.153 -3.607,0 -6.3,-1.067 -2.641,-1.067 -4.419,-2.896 -1.727,-1.88 -2.59,-4.42 -0.814,-2.54 -0.814,-5.486 z" style="-inkscape-font-specification:Ubuntu"/>
    <path id="path869" d="m 186.046,26.16 q -0.05,-0.965 -0.355,-1.88 -0.254,-0.914 -0.864,-1.625 -0.559,-0.712 -1.473,-1.169 -0.864,-0.457 -2.184,-0.457 -1.27,0 -2.185,0.457 -0.914,0.407 -1.524,1.118 -0.61,0.71 -0.965,1.676 -0.305,0.915 -0.457,1.88 z" style="-inkscape-font-specification:Ubuntu;fill:#ffffff"/>
  </g>
</svg>